<?xml version="1.0" encoding="utf-8"?>
<!-- Generator: Adobe Illustrator 27.5.0, SVG Export Plug-In . SVG Version: 6.00 Build 0)  -->
<svg version="1.1" id="PRINT" xmlns="http://www.w3.org/2000/svg" xmlns:xlink="http://www.w3.org/1999/xlink" x="0px" y="0px"
	 viewBox="0 0 555.465 384.714" style="enable-background:new 0 0 555.465 384.714;" xml:space="preserve">
<g>
	<rect x="-14.171" y="-14.174" style="fill:#FFFFFF;" width="583.81" height="413.06"/>
	<g>
		<g>
			<path style="fill:#262756;" d="M525.249,354.496c12.26,0,23.36-4.97,31.39-13c8.03-8.03,13-19.13,13-31.39v44.39v44.39h-583.81
				v-44.39H525.249z"/>
			
				<rect x="-14.171" y="354.496" transform="matrix(-1 -1.224647e-16 1.224647e-16 -1 16.0488 753.3834)" style="fill:#EE722A;" width="44.391" height="44.391"/>
			
				<rect x="-14.171" y="310.105" transform="matrix(-1 -1.224647e-16 1.224647e-16 -1 16.0488 664.6017)" style="fill:#7CCBE0;" width="44.391" height="44.391"/>
			<path style="fill:#262756;" d="M30.22,354.496L30.22,354.496L30.22,354.496c0-24.516-19.874-44.391-44.391-44.391h0l0,0
				C-14.171,334.622,5.703,354.496,30.22,354.496z"/>
			<path style="fill:#FBB825;" d="M74.609,354.496v44.39h44.39c0-12.26-4.97-23.36-13-31.39S86.869,354.496,74.609,354.496z"/>
			<polygon style="fill:#7CCBE0;" points="30.219,398.886 74.609,398.886 30.219,354.496 			"/>
			<polygon style="fill:#EE722A;" points="118.999,354.496 118.999,398.886 163.389,354.496 			"/>
			<path style="fill:#FFFFFF;" d="M74.609,398.886h44.39c0-12.26-4.97-23.36-13-31.39L74.609,398.886z"/>
			<g>
				<path style="fill:#FBB825;" d="M52.414,332.301c0,12.258-9.937,22.195-22.195,22.195v-44.391
					C42.477,310.106,52.414,320.043,52.414,332.301z"/>
				<path style="fill:#EE722A;" d="M52.414,332.301c0,12.258,9.937,22.195,22.195,22.195v-44.391
					C62.351,310.106,52.414,320.043,52.414,332.301z"/>
			</g>
			<g>
				<polygon style="fill:#FFFFFF;" points="163.389,376.692 185.584,354.496 185.584,354.496 185.584,354.496 207.78,376.692 
					185.584,376.692 185.584,376.691 185.584,376.692 				"/>
				<polygon style="fill:#FBB825;" points="163.389,398.887 185.584,376.691 185.584,376.692 185.584,376.691 207.78,398.887 
					185.584,398.887 185.584,398.886 185.584,398.887 				"/>
			</g>
			<g>
				<g>
					<g>
						<polygon style="fill:#EE722A;" points="8.024,265.715 30.22,287.911 30.219,287.911 30.22,287.911 8.024,310.106 
							8.024,287.911 8.025,287.911 8.024,287.911 						"/>
					</g>
					<g>
						<polygon style="fill:#262756;" points="-14.171,265.715 8.025,287.911 8.024,287.911 8.025,287.911 -14.171,310.106 
							-14.171,287.911 -14.171,287.911 -14.171,287.911 						"/>
					</g>
				</g>
			</g>
			<path style="fill:#262756;" d="M30.218,265.715v44.391h44.391v-44.391H30.218z M60.436,295.933H44.392v-16.044h16.044V295.933z"
				/>
			<g>
				<rect x="-14.171" y="221.325" style="fill:#7CCBE0;" width="44.391" height="44.391"/>
				<g>
					
						<rect x="-14.171" y="253.337" transform="matrix(-1 -1.224647e-16 1.224647e-16 -1 16.0486 513.2192)" style="fill:#FFFFFF;" width="44.391" height="6.545"/>
					
						<rect x="-14.171" y="240.248" transform="matrix(-1 -1.224647e-16 1.224647e-16 -1 16.0486 487.0402)" style="fill:#FFFFFF;" width="44.391" height="6.545"/>
					
						<rect x="-14.171" y="227.158" transform="matrix(-1 -1.224647e-16 1.224647e-16 -1 16.0486 460.861)" style="fill:#FFFFFF;" width="44.391" height="6.545"/>
				</g>
			</g>
			<path style="fill:#7CCBE0;" d="M96.804,310.106c-12.258,0-22.195,9.937-22.195,22.195c0,12.258,9.937,22.195,22.195,22.195
				s22.195-9.937,22.195-22.195C118.999,320.043,109.062,310.106,96.804,310.106z M96.804,342.931c-5.861,0-10.63-4.769-10.63-10.63
				c0-5.862,4.769-10.631,10.63-10.631c5.862,0,10.63,4.769,10.63,10.631C107.434,338.163,102.665,342.931,96.804,342.931z"/>
		</g>
		<g>
			<path style="fill:#262756;" d="M30.219,40.216c-12.26,0-23.36,4.97-31.39,13c-8.03,8.03-13,19.13-13,31.39v-44.39v-54.39h583.81
				v54.39H30.219z"/>
			<g>
				<g>
					
						<rect x="515.236" y="-14.173" transform="matrix(-1 -1.224647e-16 1.224647e-16 -1 1084.8754 26.0562)" style="fill:#FBB825;" width="54.403" height="54.403"/>
					<circle style="fill:#EE722A;" cx="542.438" cy="13.028" r="27.201"/>
					<path style="fill:#FFFFFF;" d="M542.438-14.173v54.403c15.023,0,27.201-12.178,27.201-27.201
						C569.639-1.995,557.461-14.173,542.438-14.173z"/>
				</g>
				<path style="fill:#7CCBE0;" d="M499.309,1.77c-9.839-9.839-23.438-15.928-38.459-15.928v24.177
					c7.157,1.941,13.718,5.723,19.103,11.107c5.384,5.384,9.166,11.945,11.107,19.104h24.178
					C515.237,25.208,509.147,11.608,499.309,1.77z"/>
				<g>
					<polygon style="fill:#EE722A;" points="433.648,40.229 406.446,13.028 406.447,13.028 406.446,13.028 433.648,-14.174 
						433.648,13.028 433.648,13.028 433.648,13.028 					"/>
					<polygon style="fill:#FBB825;" points="460.849,40.229 433.648,13.028 433.648,13.028 433.648,13.028 460.849,-14.174 
						460.849,13.028 460.849,13.028 460.849,13.028 					"/>
				</g>
				<g>
					
						<rect x="352.043" y="-14.174" transform="matrix(6.123234e-17 -1 1 6.123234e-17 366.217 392.2727)" style="fill:#7CCBE0;" width="54.403" height="54.403"/>
					<g>
						
							<rect x="368.085" y="9.017" transform="matrix(-1.836970e-16 1 -1 -1.836970e-16 408.3146 -382.2589)" style="fill:#262756;" width="54.403" height="8.021"/>
						
							<rect x="352.043" y="9.017" transform="matrix(-1.836970e-16 1 -1 -1.836970e-16 392.2727 -366.217)" style="fill:#262756;" width="54.403" height="8.021"/>
						
							<rect x="336.001" y="9.017" transform="matrix(-1.836970e-16 1 -1 -1.836970e-16 376.2308 -350.1751)" style="fill:#262756;" width="54.403" height="8.021"/>
					</g>
				</g>
				<g>
					<path style="fill:#7CCBE0;" d="M542.438,67.431c-15.023,0-27.202-12.179-27.202-27.201h54.403
						C569.639,55.252,557.461,67.431,542.438,67.431z"/>
					<path style="fill:#262756;" d="M542.438,67.43c-15.023,0-27.202,12.178-27.202,27.201h54.403
						C569.639,79.609,557.461,67.43,542.438,67.43z"/>
				</g>
				<g>
					
						<rect x="460.842" y="40.229" transform="matrix(-1 -1.224647e-16 1.224647e-16 -1 976.0858 134.8609)" style="fill:#EE722A;" width="54.403" height="54.403"/>
					<polygon style="fill:#FBB825;" points="460.842,94.632 515.244,94.632 515.244,40.229 					"/>
				</g>
				
					<rect x="515.237" y="94.632" transform="matrix(-1 -1.224647e-16 1.224647e-16 -1 1084.8755 243.6663)" style="fill:#262756;" width="54.403" height="54.403"/>
				<path style="fill:#FBB825;" d="M515.237,149.034L515.237,149.034c30.046,0,54.402-24.357,54.402-54.402l0,0l0,0
					C539.593,94.632,515.237,118.989,515.237,149.034L515.237,149.034z"/>
				<g>
					
						<rect x="515.237" y="149.034" transform="matrix(-1 -1.224647e-16 1.224647e-16 -1 1084.8755 352.4714)" style="fill:#7CCBE0;" width="54.403" height="54.403"/>
					<g>
						<path style="fill:#262756;" d="M528.837,149.036c-7.51,0-13.6,6.09-13.6,13.6c0,7.51,6.09,13.6,13.6,13.6
							c7.51,0,13.6-6.09,13.6-13.6C542.437,155.126,536.347,149.036,528.837,149.036z M528.837,167.736c-2.81,0-5.1-2.29-5.1-5.1
							s2.29-5.1,5.1-5.1s5.1,2.29,5.1,5.1S531.647,167.736,528.837,167.736z"/>
						<path style="fill:#FFFFFF;" d="M556.037,149.036c-7.51,0-13.6,6.09-13.6,13.6c0,7.51,6.09,13.6,13.6,13.6s13.6-6.09,13.6-13.6
							C569.637,155.126,563.547,149.036,556.037,149.036z M556.037,167.736c-2.81,0-5.1-2.29-5.1-5.1s2.29-5.1,5.1-5.1
							s5.1,2.29,5.1,5.1S558.847,167.736,556.037,167.736z"/>
					</g>
					<g>
						<path style="fill:#FFFFFF;" d="M528.837,176.236c-7.51,0-13.6,6.09-13.6,13.6s6.09,13.6,13.6,13.6c7.51,0,13.6-6.09,13.6-13.6
							S536.347,176.236,528.837,176.236z M528.837,194.936c-2.81,0-5.1-2.29-5.1-5.1s2.29-5.1,5.1-5.1s5.1,2.29,5.1,5.1
							S531.647,194.936,528.837,194.936z"/>
						<path style="fill:#262756;" d="M556.037,176.236c-7.51,0-13.6,6.09-13.6,13.6s6.09,13.6,13.6,13.6s13.6-6.09,13.6-13.6
							S563.547,176.236,556.037,176.236z M556.037,194.936c-2.81,0-5.1-2.29-5.1-5.1s2.29-5.1,5.1-5.1s5.1,2.29,5.1,5.1
							S558.847,194.936,556.037,194.936z"/>
					</g>
				</g>
				<g>
					
						<ellipse transform="matrix(0.2298 -0.9732 0.9732 0.2298 261.3058 534.7695)" style="fill:#EE722A;" cx="468.508" cy="102.298" rx="7.666" ry="7.666"/>
					
						<ellipse transform="matrix(0.7071 -0.7071 0.7071 0.7071 70.6089 375.0608)" style="fill:#EE722A;" cx="488.043" cy="102.298" rx="7.666" ry="7.666"/>
					
						<ellipse transform="matrix(0.7071 -0.7071 0.7071 0.7071 76.3306 388.8743)" style="fill:#EE722A;" cx="507.578" cy="102.298" rx="7.666" ry="7.666"/>
				</g>
				<g>
					
						<ellipse transform="matrix(0.7071 -0.7071 0.7071 0.7071 51.0736 366.969)" style="fill:#7CCBE0;" cx="468.508" cy="121.833" rx="7.666" ry="7.666"/>
					
						<ellipse transform="matrix(0.2298 -0.9732 0.9732 0.2298 257.339 568.8286)" style="fill:#7CCBE0;" cx="488.043" cy="121.833" rx="7.666" ry="7.666"/>
					
						<ellipse transform="matrix(0.2298 -0.9732 0.9732 0.2298 272.386 587.8412)" style="fill:#7CCBE0;" cx="507.578" cy="121.833" rx="7.666" ry="7.666"/>
				</g>
				<g>
					<path style="fill:#262756;" d="M476.174,141.368c0,4.234-3.432,7.666-7.666,7.666c-4.234,0-7.666-3.432-7.666-7.666
						c0-4.234,3.432-7.666,7.666-7.666C472.741,133.702,476.174,137.134,476.174,141.368z"/>
					<path style="fill:#262756;" d="M495.709,141.368c0,4.234-3.432,7.666-7.666,7.666c-4.234,0-7.666-3.432-7.666-7.666
						c0-4.234,3.432-7.666,7.666-7.666C492.277,133.702,495.709,137.134,495.709,141.368z"/>
					<path style="fill:#262756;" d="M515.244,141.368c0,4.234-3.432,7.666-7.666,7.666c-4.234,0-7.666-3.432-7.666-7.666
						c0-4.234,3.432-7.666,7.666-7.666C511.812,133.702,515.244,137.134,515.244,141.368z"/>
				</g>
			</g>
		</g>
		<g>
			<g>
				<g>
					<path style="fill:#EE722A;" d="M24.576,13.46h-0.08h-5.62v5.62v0.1v5.62h5.62h0.08h5.63v-5.63v-0.08v-5.63H24.576z
						 M24.039,18.627v4.296l-0.004-0.003l-3.79-3.79l4.29-4.3l3.798,3.798H24.039z M28.338,19.627l-0.002,0.002l-3.296,3.286v-3.289
						H28.338z M19.876,14.46h3.62l-3.62,3.62V14.46z M19.876,23.8v-3.62l3.62,3.62H19.876z M29.206,23.8h-3.63l3.63-3.63V23.8z
						 M25.576,14.46h3.63v3.63L25.576,14.46z"/>
					<text transform="matrix(1 0 0 1 34.3462 22.9229)" style="fill:#FFFFFF; font-family:'Inter-Black'; font-size:10px;">CompanyLogo</text>
				</g>
				<g>
					<g>
						<g>
							<g>
								
									<text transform="matrix(1 0 0 1 174.4557 97.3591)" style="fill:#262756; font-family:'Inter-Black'; font-size:32.5189px;">CERTIFICATE</text>
							</g>
							<g>
								<text transform="matrix(1 0 0 1 200.0217 120.4894)" style="fill:#EE722A; font-family:'Inter-Light'; font-size:19px;">OF APPRECIATION</text>
							</g>
						</g>
					</g>
					<g>
						
							<text transform="matrix(1 0 0 1 149.9214 167.8118)" style="fill:#383F4C; font-family:'Inter-Regular'; font-size:9.4223px;">this certificate is proudly presented to:</text>
						<g>
							
								<text transform="matrix(1 0 0 1 149.9214 167.8118)" style="fill:#262756; font-family:'Inter-Regular'; font-size:9.4223px;">this certificate is proudly presented to:</text>
						</g>
					</g>
					<g>
						<g>
							<g>
								<path style="fill:#EE722A;" d="M167.438,190.006c2.586,0,4.854,0.586,6.801,1.756c1.946,1.171,3.458,2.853,4.534,5.044
									c1.076,2.192,1.613,4.854,1.613,7.985c0,3.05-0.551,5.719-1.654,8.006c-1.103,2.288-2.635,4.071-4.595,5.351
									c-1.961,1.28-4.207,1.92-6.74,1.92c-2.587,0-4.854-0.585-6.801-1.756c-1.947-1.17-3.458-2.859-4.534-5.065
									c-1.076-2.206-1.613-4.86-1.613-7.965c0-3.049,0.558-5.718,1.674-8.006c1.116-2.287,2.648-4.07,4.595-5.351
									C162.666,190.646,164.905,190.006,167.438,190.006z M167.275,190.741c-1.771,0-3.309,0.613-4.615,1.838
									c-1.307,1.226-2.322,2.914-3.043,5.065c-0.722,2.151-1.083,4.643-1.083,7.475c0,2.886,0.401,5.398,1.205,7.536
									c0.803,2.138,1.893,3.785,3.268,4.942c1.375,1.158,2.893,1.736,4.554,1.736c1.77,0,3.309-0.612,4.615-1.838
									c1.307-1.225,2.321-2.92,3.043-5.085c0.721-2.165,1.082-4.649,1.082-7.454c0-2.914-0.402-5.433-1.205-7.557
									c-0.804-2.124-1.886-3.764-3.248-4.922C170.487,191.32,168.962,190.741,167.275,190.741z"/>
								<path style="fill:#EE722A;" d="M190.23,187.474v28.224c0,1.144,0.238,1.92,0.714,2.329c0.477,0.408,1.273,0.612,2.39,0.612
									v0.858c-0.463-0.027-1.164-0.061-2.104-0.102s-1.886-0.062-2.839-0.062c-0.926,0-1.865,0.021-2.818,0.062
									c-0.954,0.041-1.661,0.075-2.124,0.102v-0.858c1.116,0,1.913-0.204,2.39-0.612c0.476-0.409,0.715-1.185,0.715-2.329v-23.323
									c0-1.225-0.218-2.13-0.654-2.716c-0.436-0.585-1.252-0.878-2.451-0.878v-0.858c0.871,0.082,1.716,0.123,2.533,0.123
									c0.79,0,1.545-0.047,2.267-0.143C188.97,187.808,189.63,187.665,190.23,187.474z"/>
								<path style="fill:#EE722A;" d="M202.197,198.012v17.686c0,1.144,0.238,1.92,0.715,2.329c0.476,0.408,1.272,0.612,2.39,0.612
									v0.858c-0.463-0.027-1.164-0.061-2.104-0.102s-1.886-0.062-2.839-0.062c-0.926,0-1.866,0.021-2.818,0.062
									c-0.954,0.041-1.661,0.075-2.124,0.102v-0.858c1.116,0,1.913-0.204,2.39-0.612c0.476-0.409,0.714-1.185,0.714-2.329v-12.785
									c0-1.225-0.218-2.13-0.653-2.716c-0.436-0.585-1.253-0.878-2.451-0.878v-0.858c0.871,0.082,1.715,0.123,2.532,0.123
									c0.79,0,1.545-0.047,2.267-0.143C200.938,198.346,201.598,198.203,202.197,198.012z M200.073,188.25
									c0.708,0,1.321,0.259,1.838,0.776c0.517,0.518,0.776,1.13,0.776,1.838c0,0.708-0.259,1.321-0.776,1.838
									c-0.518,0.518-1.13,0.776-1.838,0.776c-0.708,0-1.321-0.259-1.838-0.776c-0.518-0.517-0.776-1.129-0.776-1.838
									c0-0.708,0.259-1.32,0.776-1.838C198.753,188.509,199.365,188.25,200.073,188.25z"/>
								<path style="fill:#EE722A;" d="M226.051,198.461v0.817c-0.518,0.055-0.995,0.286-1.43,0.694
									c-0.436,0.409-0.844,1.13-1.226,2.165l-6.698,17.563c-0.109,0-0.218,0-0.327,0s-0.231,0-0.368,0l-7.515-18.095
									c-0.436-1.062-0.865-1.708-1.287-1.94c-0.422-0.231-0.783-0.347-1.082-0.347v-0.858c0.544,0.028,1.109,0.062,1.695,0.102
									c0.585,0.041,1.218,0.062,1.899,0.062c0.844,0,1.736-0.014,2.675-0.041c0.939-0.027,1.818-0.067,2.635-0.123v0.858
									c-0.681,0-1.287,0.048-1.818,0.143c-0.531,0.096-0.872,0.361-1.021,0.796c-0.15,0.436-0.021,1.185,0.388,2.247l5.105,12.621
									l-0.245,0.205l4.657-12.213c0.354-0.899,0.496-1.614,0.429-2.145c-0.068-0.531-0.341-0.933-0.817-1.205
									c-0.477-0.272-1.205-0.435-2.185-0.49v-0.817c0.49,0.028,0.912,0.048,1.266,0.062c0.354,0.014,0.701,0.027,1.042,0.041
									c0.34,0.014,0.715,0.021,1.123,0.021c0.626,0,1.191-0.013,1.695-0.041C225.146,198.516,225.615,198.489,226.051,198.461z"/>
								<path style="fill:#EE722A;" d="M234.138,198.012v17.686c0,1.144,0.238,1.92,0.715,2.329c0.476,0.408,1.272,0.612,2.39,0.612
									v0.858c-0.463-0.027-1.164-0.061-2.104-0.102s-1.886-0.062-2.839-0.062c-0.926,0-1.866,0.021-2.818,0.062
									c-0.954,0.041-1.661,0.075-2.124,0.102v-0.858c1.116,0,1.913-0.204,2.39-0.612c0.476-0.409,0.714-1.185,0.714-2.329v-12.785
									c0-1.225-0.218-2.13-0.653-2.716c-0.436-0.585-1.253-0.878-2.451-0.878v-0.858c0.871,0.082,1.715,0.123,2.532,0.123
									c0.79,0,1.545-0.047,2.267-0.143C232.879,198.346,233.539,198.203,234.138,198.012z M232.014,188.25
									c0.708,0,1.321,0.259,1.838,0.776c0.517,0.518,0.776,1.13,0.776,1.838c0,0.708-0.259,1.321-0.776,1.838
									c-0.518,0.518-1.13,0.776-1.838,0.776c-0.708,0-1.321-0.259-1.838-0.776c-0.518-0.517-0.776-1.129-0.776-1.838
									c0-0.708,0.259-1.32,0.776-1.838C230.693,188.509,231.306,188.25,232.014,188.25z"/>
								<path style="fill:#EE722A;" d="M245.126,219.783c-1.117,0-2.083-0.211-2.9-0.633s-1.437-1.014-1.858-1.777
									c-0.422-0.762-0.633-1.647-0.633-2.655c0-1.198,0.279-2.178,0.837-2.941c0.558-0.762,1.273-1.375,2.145-1.838
									c0.871-0.462,1.79-0.851,2.757-1.164c0.966-0.313,1.885-0.612,2.757-0.898c0.871-0.286,1.586-0.619,2.145-1
									c0.558-0.381,0.837-0.885,0.837-1.512v-2.532c0-1.144-0.17-2.015-0.511-2.614c-0.341-0.599-0.796-1-1.368-1.205
									c-0.572-0.205-1.212-0.307-1.92-0.307c-0.681,0-1.409,0.096-2.185,0.286c-0.776,0.191-1.396,0.586-1.859,1.185
									c0.517,0.109,0.966,0.381,1.348,0.817c0.381,0.436,0.572,0.994,0.572,1.674c0,0.681-0.218,1.219-0.653,1.614
									c-0.436,0.395-0.995,0.592-1.675,0.592c-0.79,0-1.368-0.251-1.736-0.756c-0.368-0.503-0.552-1.068-0.552-1.695
									c0-0.708,0.177-1.28,0.531-1.716c0.354-0.435,0.803-0.844,1.348-1.225c0.626-0.436,1.436-0.81,2.431-1.124
									c0.994-0.313,2.117-0.47,3.37-0.47c1.116,0,2.069,0.13,2.859,0.388c0.789,0.259,1.443,0.633,1.96,1.123
									c0.708,0.654,1.17,1.45,1.389,2.39c0.218,0.939,0.327,2.063,0.327,3.37v11.355c0,0.681,0.102,1.171,0.307,1.471
									c0.204,0.3,0.524,0.449,0.959,0.449c0.299,0,0.585-0.067,0.858-0.204c0.272-0.136,0.599-0.354,0.98-0.654l0.449,0.694
									c-0.572,0.436-1.117,0.797-1.634,1.083c-0.518,0.286-1.212,0.429-2.083,0.429c-0.79,0-1.444-0.137-1.961-0.409
									c-0.518-0.272-0.905-0.674-1.164-1.205c-0.259-0.531-0.388-1.205-0.388-2.021c-0.735,1.225-1.614,2.138-2.635,2.736
									C247.556,219.484,246.405,219.783,245.126,219.783z M246.596,218.149c0.898,0,1.736-0.258,2.512-0.776
									c0.776-0.517,1.477-1.293,2.104-2.328v-8.006c-0.327,0.463-0.804,0.852-1.43,1.164c-0.627,0.313-1.307,0.627-2.042,0.939
									c-0.735,0.313-1.437,0.681-2.104,1.103c-0.667,0.422-1.219,0.974-1.654,1.654c-0.436,0.681-0.653,1.566-0.653,2.655
									c0,1.089,0.292,1.96,0.878,2.614C244.792,217.822,245.588,218.149,246.596,218.149z"/>
								<path style="fill:#EE722A;" d="M277.148,190.578v0.817c-0.708,0.055-1.219,0.19-1.532,0.408
									c-0.313,0.218-0.463,0.565-0.45,1.042c0.014,0.477,0.157,1.137,0.429,1.981l6.331,19.32l-1.021,1.021l5.718-18.258
									l0.613,0.98l-6.74,21.812c-0.055,0-0.109,0-0.164,0s-0.109,0-0.163,0c-0.055,0-0.109,0-0.164,0c-0.055,0-0.109,0-0.163,0
									l-8.66-25.692c-0.354-1.062-0.803-1.756-1.348-2.083c-0.545-0.327-1.035-0.503-1.471-0.531v-0.817
									c0.544,0.028,1.219,0.055,2.022,0.082c0.803,0.027,1.586,0.041,2.349,0.041c0.899,0,1.736-0.013,2.512-0.041
									C276.025,190.633,276.658,190.606,277.148,190.578z M305.699,190.578v0.817c-0.518,0.109-1.09,0.415-1.716,0.919
									c-0.627,0.504-1.13,1.382-1.511,2.634l-7.72,24.752c-0.056,0-0.109,0-0.164,0s-0.109,0-0.163,0c-0.055,0-0.109,0-0.163,0
									c-0.056,0-0.109,0-0.164,0l-8.659-25.692c-0.354-1.062-0.75-1.756-1.185-2.083c-0.436-0.327-0.844-0.503-1.226-0.531v-0.817
									c0.49,0.028,1.103,0.055,1.838,0.082c0.735,0.027,1.443,0.041,2.125,0.041c1.062,0,2.056-0.013,2.981-0.041
									c0.926-0.027,1.675-0.054,2.246-0.082v0.817c-0.816,0.027-1.464,0.109-1.939,0.245c-0.478,0.137-0.75,0.436-0.817,0.899
									c-0.068,0.463,0.062,1.225,0.388,2.287l6.086,18.83l-0.571,0.49l5.392-16.951c0.49-1.497,0.715-2.661,0.674-3.492
									c-0.041-0.831-0.347-1.416-0.919-1.756c-0.572-0.34-1.43-0.524-2.573-0.551v-0.817c0.789,0.028,1.593,0.055,2.41,0.082
									c0.816,0.027,1.579,0.041,2.287,0.041s1.293-0.013,1.756-0.041C304.855,190.633,305.291,190.606,305.699,190.578z"/>
								<path style="fill:#EE722A;" d="M313.582,198.012v17.686c0,1.144,0.238,1.92,0.715,2.329c0.477,0.408,1.272,0.612,2.39,0.612
									v0.858c-0.463-0.027-1.164-0.061-2.104-0.102s-1.886-0.062-2.839-0.062c-0.926,0-1.865,0.021-2.818,0.062
									s-1.661,0.075-2.124,0.102v-0.858c1.116,0,1.913-0.204,2.39-0.612c0.477-0.409,0.715-1.185,0.715-2.329v-12.785
									c0-1.225-0.219-2.13-0.653-2.716c-0.437-0.585-1.253-0.878-2.451-0.878v-0.858c0.871,0.082,1.716,0.123,2.532,0.123
									c0.79,0,1.546-0.047,2.268-0.143C312.322,198.346,312.983,198.203,313.582,198.012z M311.458,188.25
									c0.708,0,1.321,0.259,1.839,0.776c0.517,0.518,0.775,1.13,0.775,1.838c0,0.708-0.259,1.321-0.775,1.838
									c-0.518,0.518-1.131,0.776-1.839,0.776s-1.32-0.259-1.838-0.776c-0.518-0.517-0.776-1.129-0.776-1.838
									c0-0.708,0.259-1.32,0.776-1.838C310.138,188.509,310.75,188.25,311.458,188.25z"/>
								<path style="fill:#EE722A;" d="M325.265,187.474v28.224c0,1.144,0.237,1.92,0.714,2.329c0.477,0.408,1.273,0.612,2.39,0.612
									v0.858c-0.463-0.027-1.164-0.061-2.104-0.102s-1.886-0.062-2.839-0.062c-0.926,0-1.865,0.021-2.818,0.062
									s-1.661,0.075-2.124,0.102v-0.858c1.116,0,1.913-0.204,2.39-0.612c0.477-0.409,0.715-1.185,0.715-2.329v-23.323
									c0-1.225-0.218-2.13-0.653-2.716c-0.436-0.585-1.253-0.878-2.451-0.878v-0.858c0.871,0.082,1.716,0.123,2.533,0.123
									c0.789,0,1.545-0.047,2.267-0.143C324.004,187.808,324.665,187.665,325.265,187.474z"/>
								<path style="fill:#EE722A;" d="M337.763,197.889c1.089,0,2.015,0.178,2.777,0.531c0.763,0.354,1.32,0.681,1.675,0.98
									c0.898,0.735,1.443,0.245,1.634-1.47h0.939c-0.055,0.763-0.096,1.668-0.122,2.716c-0.027,1.048-0.041,2.458-0.041,4.228
									h-0.939c-0.164-1.007-0.443-1.988-0.838-2.941s-0.974-1.736-1.735-2.349c-0.763-0.613-1.757-0.919-2.982-0.919
									c-0.953,0-1.75,0.265-2.389,0.796c-0.641,0.531-0.96,1.314-0.96,2.349c0,0.817,0.245,1.518,0.735,2.104
									c0.49,0.586,1.129,1.13,1.919,1.634c0.79,0.504,1.647,1.056,2.573,1.654c1.035,0.653,1.975,1.321,2.818,2.001
									s1.519,1.43,2.022,2.247c0.503,0.817,0.756,1.784,0.756,2.9c0,1.253-0.327,2.301-0.98,3.145
									c-0.653,0.844-1.505,1.484-2.553,1.92c-1.049,0.435-2.199,0.653-3.452,0.653c-0.599,0-1.164-0.048-1.694-0.143
									c-0.531-0.096-1.042-0.238-1.532-0.429c-0.272-0.136-0.552-0.299-0.837-0.49c-0.286-0.19-0.565-0.395-0.838-0.613
									c-0.272-0.217-0.518-0.21-0.735,0.021c-0.218,0.232-0.381,0.688-0.49,1.369h-0.938c0.054-0.872,0.095-1.934,0.122-3.186
									c0.026-1.252,0.041-2.914,0.041-4.983h0.939c0.19,1.525,0.463,2.859,0.816,4.003s0.912,2.036,1.675,2.675
									c0.762,0.64,1.824,0.96,3.187,0.96c0.544,0,1.096-0.123,1.654-0.368c0.558-0.245,1.027-0.653,1.409-1.225
									c0.381-0.572,0.571-1.334,0.571-2.288c0-1.198-0.436-2.178-1.307-2.941c-0.872-0.762-1.975-1.565-3.309-2.41
									c-0.98-0.626-1.899-1.252-2.757-1.879c-0.858-0.626-1.553-1.334-2.084-2.124c-0.53-0.79-0.796-1.742-0.796-2.859
									c0-1.225,0.278-2.226,0.837-3.002c0.558-0.776,1.3-1.348,2.227-1.716C335.706,198.073,336.701,197.889,337.763,197.889z"/>
								<path style="fill:#EE722A;" d="M358.717,197.889c1.742,0,3.308,0.382,4.697,1.144c1.389,0.763,2.497,1.961,3.328,3.595
									s1.246,3.758,1.246,6.372c0,2.614-0.415,4.732-1.246,6.352c-0.831,1.621-1.939,2.812-3.328,3.574
									c-1.39,0.762-2.955,1.144-4.697,1.144c-1.716,0-3.275-0.381-4.678-1.144s-2.519-1.954-3.349-3.574
									c-0.831-1.62-1.246-3.737-1.246-6.352c0-2.614,0.415-4.738,1.246-6.372c0.83-1.634,1.946-2.832,3.349-3.595
									C355.441,198.271,357.001,197.889,358.717,197.889z M358.717,198.706c-1.553,0-2.826,0.804-3.819,2.41
									c-0.994,1.607-1.491,4.234-1.491,7.883c0,3.649,0.497,6.27,1.491,7.863c0.993,1.593,2.267,2.39,3.819,2.39
									c1.552,0,2.824-0.796,3.818-2.39c0.994-1.593,1.491-4.213,1.491-7.863c0-3.648-0.497-6.276-1.491-7.883
									C361.541,199.51,360.269,198.706,358.717,198.706z"/>
								<path style="fill:#EE722A;" d="M384.816,197.889c1.034,0,1.899,0.137,2.594,0.409c0.694,0.272,1.272,0.653,1.735,1.144
									c0.518,0.545,0.885,1.225,1.104,2.042c0.217,0.817,0.326,1.919,0.326,3.308v10.906c0,1.144,0.238,1.92,0.715,2.329
									c0.477,0.408,1.272,0.612,2.39,0.612v0.858c-0.464-0.027-1.171-0.061-2.124-0.102s-1.879-0.062-2.777-0.062
									s-1.777,0.021-2.635,0.062s-1.505,0.075-1.94,0.102v-0.858c0.98,0,1.675-0.204,2.083-0.612
									c0.409-0.409,0.613-1.185,0.613-2.329v-11.804c0-0.844-0.068-1.62-0.204-2.328c-0.137-0.708-0.443-1.28-0.919-1.716
									c-0.478-0.435-1.205-0.653-2.186-0.653c-1.144,0-2.145,0.327-3.002,0.98c-0.858,0.653-1.525,1.545-2.002,2.675
									c-0.477,1.13-0.715,2.39-0.715,3.778v9.067c0,1.144,0.204,1.92,0.613,2.329c0.408,0.408,1.103,0.612,2.083,0.612v0.858
									c-0.437-0.027-1.083-0.061-1.94-0.102s-1.736-0.062-2.635-0.062s-1.824,0.021-2.777,0.062s-1.661,0.075-2.124,0.102v-0.858
									c1.116,0,1.913-0.204,2.39-0.612c0.477-0.409,0.715-1.185,0.715-2.329v-12.785c0-1.225-0.219-2.13-0.653-2.716
									c-0.437-0.585-1.253-0.878-2.451-0.878v-0.858c0.871,0.082,1.716,0.123,2.532,0.123c0.79,0,1.546-0.047,2.268-0.143
									c0.721-0.095,1.382-0.238,1.98-0.429v4.82c0.708-1.852,1.695-3.138,2.962-3.86
									C382.1,198.251,383.428,197.889,384.816,197.889z"/>
							</g>
						</g>
					</g>
					
						<line style="fill:none;stroke:#262756;stroke-width:0.5;stroke-miterlimit:10;" x1="149.903" y1="229.407" x2="405.562" y2="229.407"/>
					<g>
						<rect x="149.903" y="242.286" style="fill:none;" width="255.659" height="38.42"/>
						<text transform="matrix(1 0 0 1 152.5036 247.3761)"><tspan x="0" y="0" style="fill:#383F4C; font-family:'Inter-Light'; font-size:7px;">Lorem ipsum dolor sit amet, consectetuer adipiscing elit, sed diam nonummy </tspan><tspan x="-0.363" y="8.4" style="fill:#383F4C; font-family:'Inter-Light'; font-size:7px;">nibh euismod tincidunt ut laoreet dolore magna aliquam erat volutpat. Ut wisi </tspan><tspan x="87.98" y="16.8" style="fill:#383F4C; font-family:'Inter-Light'; font-size:7px;">enim ad minim veniam.</tspan></text>
						<g>
							<rect x="149.903" y="242.286" style="fill:none;" width="255.659" height="38.42"/>
							<text transform="matrix(1 0 0 1 152.5036 247.3761)"><tspan x="0" y="0" style="fill:#262756; font-family:'Inter-Light'; font-size:7px;">Lorem ipsum dolor sit amet, consectetuer adipiscing elit, sed diam nonummy </tspan><tspan x="-0.363" y="8.4" style="fill:#262756; font-family:'Inter-Light'; font-size:7px;">nibh euismod tincidunt ut laoreet dolore magna aliquam erat volutpat. Ut wisi </tspan><tspan x="87.98" y="16.8" style="fill:#262756; font-family:'Inter-Light'; font-size:7px;">enim ad minim veniam.</tspan></text>
						</g>
					</g>
					<g>
						<g>
							<g>
								<g>
									<g>
										
											<line style="fill:none;stroke:#262756;stroke-width:0.5;stroke-miterlimit:10;" x1="135.759" y1="311.92" x2="222.406" y2="312.4"/>
									</g>
									
										<text transform="matrix(1 0 0 1 168.0359 321.9287)" style="fill:#262756; font-family:'Inter-Bold'; font-size:6.9348px;">DATE</text>
								</g>
							</g>
							<g>
								<g>
									<g>
										
											<line style="fill:none;stroke:#262756;stroke-width:0.5;stroke-miterlimit:10;" x1="333.06" y1="311.919" x2="419.706" y2="312.399"/>
									</g>
									
										<text transform="matrix(1 0 0 1 352.0556 321.9284)" style="fill:#262756; font-family:'Inter-Bold'; font-size:6.9348px;">SIGNATURE</text>
								</g>
							</g>
						</g>
					</g>
					<g>
						<g>
							
								<rect x="243.293" y="136.166" transform="matrix(0.7071 -0.7071 0.7071 0.7071 -25.7071 213.5636)" style="fill:#262756;" width="3.295" height="3.295"/>
							
								<rect x="259.689" y="136.166" transform="matrix(0.7071 -0.7071 0.7071 0.7071 -20.9048 225.1574)" style="fill:#262756;" width="3.295" height="3.295"/>
							
								<rect x="276.085" y="136.166" transform="matrix(0.7071 -0.7071 0.7071 0.7071 -16.1025 236.7511)" style="fill:#262756;" width="3.295" height="3.295"/>
							
								<rect x="292.481" y="136.166" transform="matrix(0.7071 -0.7071 0.7071 0.7071 -11.3002 248.3449)" style="fill:#262756;" width="3.295" height="3.295"/>
							
								<rect x="308.877" y="136.166" transform="matrix(0.7071 -0.7071 0.7071 0.7071 -6.495 259.9461)" style="fill:#262756;" width="3.295" height="3.295"/>
						</g>
					</g>
				</g>
			</g>
			<g>
				<g>
					<path style="fill:#FBB825;" d="M59.499,146.598c-0.968-0.272-1.914-0.592-2.841-0.944c0.879-3.275-0.918-6.704-4.179-7.778
						c-0.82,2.488-0.031,5.11,1.787,6.768c-1.396-0.658-2.722-1.426-4-2.258c1.473-3.066,0.327-6.777-2.693-8.428
						c-1.224,2.24-0.959,4.875,0.431,6.822c-1.148-0.888-2.235-1.843-3.256-2.864c2.077-2.738,1.659-6.642-1.017-8.848
						c-1.638,1.987-1.866,4.655-0.837,6.839c-0.95-1.116-1.836-2.284-2.636-3.512c2.597-2.115,3.176-5.892,1.22-8.674
						c-2.088,1.469-3.015,3.952-2.627,6.313c-0.711-1.311-1.322-2.676-1.859-4.076c2.954-1.71,4.091-5.439,2.509-8.505l0,0l0,0
						c-2.195,1.133-3.434,3.355-3.458,5.664c-0.406-1.423-0.723-2.876-0.942-4.359c3.283-0.853,5.377-4.109,4.701-7.475
						c-2.547,0.512-4.423,2.466-4.985,4.838c-0.05-0.75-0.095-1.502-0.095-2.262c0-0.891,0.046-1.774,0.115-2.654
						c3.445-0.178,6.162-3.036,6.107-6.513c-2.603,0.041-4.808,1.629-5.787,3.868c0.283-1.783,0.703-3.531,1.259-5.231
						c3.345,0.624,6.63-1.45,7.436-4.796c-2.486-0.6-4.967,0.348-6.484,2.204c0.804-1.916,1.789-3.749,2.924-5.487
						c3.158,1.341,6.836-0.013,8.324-3.14c-2.182-1.038-4.64-0.715-6.48,0.59c1.215-1.529,2.558-2.961,4.03-4.271
						c2.655,2.148,6.547,1.873,8.843-0.704c-1.826-1.627-4.313-1.995-6.463-1.22c0.943-0.697,1.925-1.351,2.946-1.953
						c3.255,0.744,6.582-1.108,7.581-4.351c-3.236-0.997-6.631,0.7-7.856,3.797c-1.281,0.753-2.505,1.578-3.664,2.476
						c1.436-2.108,1.543-4.957,0.036-7.206c-2.891,1.937-3.692,5.802-1.871,8.736c-1.713,1.529-3.261,3.218-4.629,5.037
						c0.812-2.436,0.125-5.225-1.964-6.973c-2.226,2.66-1.92,6.576,0.625,8.885c-1.191,1.828-2.213,3.762-3.044,5.782
						c0.182-2.466-1.064-4.924-3.387-6.161c-1.641,3.081-0.513,6.883,2.497,8.603c-0.562,1.725-0.987,3.5-1.273,5.31
						c-0.479-2.379-2.272-4.391-4.786-4.998v0c-0.81,3.357,1.183,6.714,4.464,7.671c-0.07,0.895-0.117,1.794-0.117,2.7
						c0,0.783,0.045,1.558,0.097,2.331c-0.899-2.26-3.031-3.92-5.62-4.062c-0.191,3.494,2.446,6.475,5.913,6.755
						c0.255,1.725,0.644,3.411,1.148,5.054c-1.456-2.081-4.07-3.191-6.7-2.593c0.772,3.395,4.096,5.529,7.49,4.878
						c0.576,1.498,1.245,2.952,2.017,4.348c-1.73-1.792-4.422-2.492-6.901-1.558c1.246,3.307,4.92,4.982,8.232,3.774
						c0.832,1.272,1.751,2.484,2.741,3.637c-2.129-1.207-4.851-1.153-6.96,0.379v0c2.037,2.802,5.902,3.458,8.761,1.559
						c1.1,1.1,2.277,2.121,3.52,3.067c-2.335-0.822-5.036-0.259-6.837,1.663c2.547,2.387,6.512,2.289,8.957-0.169
						c1.268,0.823,2.581,1.584,3.962,2.239c-2.392-0.311-4.861,0.721-6.251,2.886c2.944,1.891,6.838,1.07,8.794-1.806
						c0.935,0.354,1.889,0.675,2.864,0.949c0.027,0.008,0.056,0.012,0.084,0.012c0.134,0,0.258-0.089,0.296-0.225
						C59.758,146.814,59.663,146.644,59.499,146.598z"/>
					<path style="fill:#FBB825;" d="M110.289,123.937c0.504-1.644,0.893-3.329,1.148-5.054c3.467-0.28,6.104-3.261,5.913-6.755
						c-2.589,0.142-4.721,1.801-5.62,4.061c0.052-0.773,0.097-1.548,0.097-2.331c0-0.906-0.046-1.805-0.117-2.7
						c3.281-0.956,5.275-4.313,4.464-7.671v0c-2.515,0.607-4.308,2.619-4.786,4.998c-0.286-1.81-0.711-3.584-1.274-5.31
						c3.01-1.72,4.138-5.522,2.497-8.603c-2.323,1.237-3.569,3.695-3.387,6.161c-0.83-2.02-1.853-3.954-3.044-5.782
						c2.545-2.309,2.851-6.226,0.625-8.885c-2.089,1.748-2.776,4.536-1.964,6.973c-1.368-1.819-2.915-3.508-4.629-5.037
						c1.821-2.934,1.021-6.799-1.871-8.736c-1.506,2.249-1.399,5.098,0.036,7.206c-1.158-0.898-2.382-1.723-3.663-2.476
						c-1.224-3.097-4.62-4.794-7.856-3.797c0.999,3.243,4.326,5.095,7.581,4.351c1.022,0.602,2.004,1.255,2.946,1.953
						c-2.15-0.775-4.637-0.407-6.463,1.22c2.296,2.577,6.188,2.852,8.843,0.704c1.471,1.309,2.815,2.742,4.03,4.271
						c-1.841-1.306-4.298-1.628-6.481-0.59c1.488,3.127,5.167,4.482,8.324,3.14c1.136,1.737,2.121,3.571,2.924,5.487
						c-1.516-1.856-3.998-2.804-6.484-2.204c0.807,3.346,4.092,5.42,7.436,4.796c0.556,1.7,0.976,3.448,1.259,5.231
						c-0.979-2.239-3.184-3.827-5.787-3.868c-0.055,3.477,2.662,6.336,6.107,6.513c0.069,0.88,0.115,1.763,0.115,2.654
						c0,0.76-0.044,1.513-0.095,2.263c-0.562-2.373-2.438-4.327-4.985-4.839c-0.676,3.366,1.419,6.622,4.701,7.475
						c-0.217,1.483-0.535,2.936-0.941,4.359c-0.024-2.309-1.262-4.532-3.458-5.665c-1.582,3.066-0.445,6.795,2.509,8.505
						c-0.537,1.4-1.147,2.766-1.859,4.076c0.388-2.361-0.539-4.844-2.627-6.313c-1.957,2.782-1.378,6.559,1.22,8.674
						c-0.8,1.228-1.686,2.397-2.636,3.512c1.029-2.184,0.801-4.853-0.837-6.839l0,0c-2.675,2.206-3.093,6.11-1.016,8.848
						c-1.021,1.022-2.109,1.977-3.257,2.864c1.389-1.947,1.655-4.582,0.431-6.822c-3.02,1.65-4.166,5.362-2.693,8.428
						c-1.278,0.831-2.604,1.6-4,2.258c1.817-1.658,2.606-4.28,1.786-6.768c-3.261,1.074-5.058,4.503-4.179,7.778
						c-0.928,0.352-1.873,0.672-2.841,0.945c-0.163,0.046-0.259,0.216-0.213,0.38c0.038,0.136,0.162,0.225,0.296,0.225
						c0.028,0,0.056-0.004,0.084-0.012c0.976-0.274,1.929-0.595,2.864-0.949c1.956,2.877,5.85,3.698,8.794,1.806
						c-1.39-2.164-3.859-3.196-6.251-2.886c1.381-0.655,2.694-1.417,3.962-2.239c2.445,2.459,6.41,2.557,8.958,0.169
						c-1.801-1.922-4.503-2.484-6.838-1.663c1.243-0.947,2.421-1.968,3.52-3.067c2.858,1.899,6.724,1.243,8.761-1.559v0
						c-2.109-1.533-4.831-1.586-6.96-0.379c0.99-1.153,1.909-2.365,2.742-3.637c3.312,1.209,6.986-0.467,8.231-3.774
						c-2.48-0.934-5.171-0.235-6.901,1.558c0.773-1.396,1.441-2.85,2.017-4.348c3.393,0.651,6.718-1.483,7.49-4.878
						C114.359,120.747,111.746,121.856,110.289,123.937z"/>
				</g>
				<text transform="matrix(1 0 0 1 55.0233 111.1793)"><tspan x="0" y="0" style="fill:#FBB825; font-family:'Inter-Black'; font-size:15.8186px;">Best</tspan><tspan x="-8.471" y="14.578" style="fill:#FBB825; font-family:'Inter-Black'; font-size:15.8186px;">Award</tspan></text>
				<g>
					<g>
						<polygon style="fill:#FBB825;" points="72.966,85.946 74.239,88.525 77.085,88.938 75.025,90.945 75.512,93.779 
							72.966,92.441 70.421,93.779 70.907,90.945 68.848,88.938 71.694,88.525 						"/>
						<g>
							<polygon style="fill:#FBB825;" points="82.565,87.117 83.457,88.925 85.451,89.215 84.008,90.621 84.349,92.608 
								82.565,91.67 80.781,92.608 81.121,90.621 79.678,89.215 81.673,88.925 							"/>
							<polygon style="fill:#FBB825;" points="63.368,87.117 64.26,88.925 66.255,89.215 64.811,90.621 65.152,92.608 63.368,91.67 
								61.584,92.608 61.925,90.621 60.481,89.215 62.476,88.925 							"/>
						</g>
					</g>
					<g>
						<polygon style="fill:#FBB825;" points="72.966,141.201 71.694,138.623 68.848,138.209 70.907,136.202 70.421,133.368 
							72.966,134.706 75.512,133.368 75.025,136.202 77.085,138.209 74.239,138.623 						"/>
						<g>
							<polygon style="fill:#FBB825;" points="63.368,140.03 62.476,138.223 60.481,137.933 61.925,136.526 61.584,134.539 
								63.368,135.477 65.152,134.539 64.811,136.526 66.255,137.933 64.26,138.223 							"/>
							<polygon style="fill:#FBB825;" points="82.565,140.03 81.673,138.223 79.678,137.933 81.121,136.526 80.781,134.539 
								82.565,135.477 84.349,134.539 84.008,136.526 85.451,137.933 83.457,138.223 							"/>
						</g>
					</g>
				</g>
			</g>
			<g>
				<g>
					<path style="fill:#FBB825;" d="M520.976,289.176c0,3.17-5.74,18.621-5.74,18.621s-5.739-15.452-5.739-18.621
						s2.57-5.74,5.739-5.74C518.407,283.437,520.976,286.007,520.976,289.176z"/>
					<path style="fill:#FBB825;" d="M509.497,326.419c0-3.17,5.739-18.621,5.739-18.621s5.74,15.452,5.74,18.621
						c0,3.17-2.57,5.74-5.74,5.74C512.067,332.159,509.497,329.589,509.497,326.419z"/>
				</g>
				<g>
					<path style="fill:#FBB825;" d="M534.379,304.151c-2.801,1.484-19.142,3.646-19.142,3.646s10.967-12.306,13.768-13.79
						c2.801-1.484,6.275-0.416,7.759,2.385S537.18,302.667,534.379,304.151z"/>
					<path style="fill:#FBB825;" d="M496.095,311.444c2.801-1.484,19.142-3.646,19.142-3.646s-10.967,12.305-13.768,13.789
						c-2.801,1.484-6.275,0.416-7.759-2.385C492.227,316.402,493.294,312.928,496.095,311.444z"/>
				</g>
				<g>
					<path style="fill:#FBB825;" d="M534.379,304.151c-2.801,1.484-19.142,3.646-19.142,3.646s10.967-12.306,13.768-13.79
						c2.801-1.484,6.275-0.416,7.759,2.385S537.18,302.667,534.379,304.151z"/>
					<path style="fill:#FBB825;" d="M496.095,311.444c2.801-1.484,19.142-3.646,19.142-3.646s-10.967,12.305-13.768,13.789
						c-2.801,1.484-6.275,0.416-7.759-2.385C492.227,316.402,493.294,312.928,496.095,311.444z"/>
				</g>
				<g>
					<path style="fill:#FBB825;" d="M496.095,304.151c2.801,1.484,19.142,3.646,19.142,3.646s-10.967-12.306-13.768-13.79
						c-2.801-1.484-6.275-0.416-7.759,2.385C492.227,299.194,493.294,302.667,496.095,304.151z"/>
					<path style="fill:#FBB825;" d="M534.379,311.444c-2.801-1.484-19.142-3.646-19.142-3.646s10.967,12.305,13.768,13.789
						c2.801,1.484,6.275,0.416,7.759-2.385S537.18,312.928,534.379,311.444z"/>
				</g>
			</g>
		</g>
	</g>
</g>
</svg>
